<svg xmlns="http://www.w3.org/2000/svg" viewBox="0 0 25 31.25" x="0px" y="0px"><g><path d="M20.714,7.4a4.33,4.33,0,0,1-.97,1.19c-.73.62-1.81,1.56-2.98,2.59l2.31,8.67a.368.368,0,0,1-.1.36l-1.06,1.07a.4.4,0,0,1-.27.11h-.02a.393.393,0,0,1-.28-.15L12.5,14.95c-1.1.97-1.96,1.74-2.3,2.05l.46,2.33a.357.357,0,0,1-.16.38l-1.14.75a.363.363,0,0,1-.5-.09l-1.82-2.41-2.41-1.82a.365.365,0,0,1-.09-.5l.75-1.14a.357.357,0,0,1,.38-.16L8,14.8c.31-.34,1.08-1.2,2.05-2.3L3.764,7.66a.393.393,0,0,1-.15-.28.456.456,0,0,1,.11-.29l1.07-1.06a.368.368,0,0,1,.36-.1l8.67,2.31c1.03-1.17,1.97-2.25,2.59-2.98a4.436,4.436,0,0,1,1.18-.97c1.5-.83,2.65-.9,3.33-.21C21.6,4.75,21.534,5.94,20.714,7.4Z" fill="#dd95cd"/></g></svg>