<svg xmlns="http://www.w3.org/2000/svg" viewBox="0 0 32 40" fill="none" x="0px" y="0px"><path fill-rule="evenodd" clip-rule="evenodd" d="M4.55815 27.4419C4.31407 27.1979 4.31407 26.8021 4.55815 26.5581L26.5582 4.55806C26.8022 4.31398 27.198 4.31398 27.442 4.55806C27.6861 4.80213 27.6861 5.19786 27.442 5.44194L5.44204 27.4419C5.19796 27.686 4.80223 27.686 4.55815 27.4419Z" fill="#eaf4ff"/><path fill-rule="evenodd" clip-rule="evenodd" d="M6 20.75C6.41421 20.75 6.75 20.4142 6.75 20C6.75 19.5858 6.41421 19.25 6 19.25C5.58579 19.25 5.25 19.5858 5.25 20C5.25 20.4142 5.58579 20.75 6 20.75ZM6 22C7.10457 22 8 21.1046 8 20C8 18.8954 7.10457 18 6 18C4.89543 18 4 18.8954 4 20C4 21.1046 4.89543 22 6 22Z" fill="#eaf4ff"/><path fill-rule="evenodd" clip-rule="evenodd" d="M20 19.75C20.4142 19.75 20.75 19.4142 20.75 19C20.75 18.5858 20.4142 18.25 20 18.25C19.5858 18.25 19.25 18.5858 19.25 19C19.25 19.4142 19.5858 19.75 20 19.75ZM20 21C21.1046 21 22 20.1046 22 19C22 17.8954 21.1046 17 20 17C18.8954 17 18 17.8954 18 19C18 20.1046 18.8954 21 20 21Z" fill="#eaf4ff"/><path fill-rule="evenodd" clip-rule="evenodd" d="M10.5 13.75C10.6381 13.75 10.75 13.6381 10.75 13.5C10.75 13.3619 10.6381 13.25 10.5 13.25C10.3619 13.25 10.25 13.3619 10.25 13.5C10.25 13.6381 10.3619 13.75 10.5 13.75ZM10.5 15C11.3284 15 12 14.3284 12 13.5C12 12.6716 11.3284 12 10.5 12C9.67157 12 9 12.6716 9 13.5C9 14.3284 9.67157 15 10.5 15Z" fill="#eaf4ff"/><path fill-rule="evenodd" clip-rule="evenodd" d="M26 13.75C26.9665 13.75 27.75 12.9665 27.75 12C27.75 11.0335 26.9665 10.25 26 10.25C25.0335 10.25 24.25 11.0335 24.25 12C24.25 12.9665 25.0335 13.75 26 13.75ZM26 15C27.6569 15 29 13.6569 29 12C29 10.3431 27.6569 9 26 9C24.3431 9 23 10.3431 23 12C23 13.6569 24.3431 15 26 15Z" fill="#eaf4ff"/><path fill-rule="evenodd" clip-rule="evenodd" d="M16 9.75C16.9665 9.75 17.75 8.9665 17.75 8C17.75 7.0335 16.9665 6.25 16 6.25C15.0335 6.25 14.25 7.0335 14.25 8C14.25 8.9665 15.0335 9.75 16 9.75ZM16 11C17.6569 11 19 9.65685 19 8C19 6.34315 17.6569 5 16 5C14.3431 5 13 6.34315 13 8C13 9.65685 14.3431 11 16 11Z" fill="#eaf4ff"/><path fill-rule="evenodd" clip-rule="evenodd" d="M7 7.75C7.9665 7.75 8.75 6.9665 8.75 6C8.75 5.0335 7.9665 4.25 7 4.25C6.0335 4.25 5.25 5.0335 5.25 6C5.25 6.9665 6.0335 7.75 7 7.75ZM7 9C8.65685 9 10 7.65685 10 6C10 4.34315 8.65685 3 7 3C5.34315 3 4 4.34315 4 6C4 7.65685 5.34315 9 7 9Z" fill="#eaf4ff"/><path fill-rule="evenodd" clip-rule="evenodd" d="M13 26.75C13.9665 26.75 14.75 25.9665 14.75 25C14.75 24.0335 13.9665 23.25 13 23.25C12.0335 23.25 11.25 24.0335 11.25 25C11.25 25.9665 12.0335 26.75 13 26.75ZM13 28C14.6569 28 16 26.6569 16 25C16 23.3431 14.6569 22 13 22C11.3431 22 10 23.3431 10 25C10 26.6569 11.3431 28 13 28Z" fill="#eaf4ff"/><path fill-rule="evenodd" clip-rule="evenodd" d="M25 26.75C25.9665 26.75 26.75 25.9665 26.75 25C26.75 24.0335 25.9665 23.25 25 23.25C24.0335 23.25 23.25 24.0335 23.25 25C23.25 25.9665 24.0335 26.75 25 26.75ZM25 28C26.6569 28 28 26.6569 28 25C28 23.3431 26.6569 22 25 22C23.3431 22 22 23.3431 22 25C22 26.6569 23.3431 28 25 28Z" fill="#eaf4ff"/></svg>