<svg xmlns="http://www.w3.org/2000/svg" xmlns:xlink="http://www.w3.org/1999/xlink" version="1.1" x="0px" y="0px" viewBox="0 0 100 125" style="enable-background:new 0 0 100 100;" xml:space="preserve"><path fill="#777c8f" d="M87.1,37.7C86.2,20.5,72,6.6,54.7,6.1C35.9,5.6,20.5,20.7,20.5,39.5c0,0.5,0,1,0,1.5l0,0c0,0-2.9,10.8-6.8,16.8  c-3.8,6,6.8,6.6,6.8,6.6S20.3,79.8,37,82.2v11.7l39.7-8.1c0,0-0.9-13.8,0-18.4c0.4-2.1,2.3-5.8,3.7-7.7l0,0  C84.9,53.7,87.5,46,87.1,37.7z M54,66.3c-4.6,0-8.9-1.1-12.7-3.2l-12.7,9.4l5-15.5c-4-4.7-6.5-10.8-6.5-17.5  c0-14.8,12-26.9,26.9-26.9s26.9,12,26.9,26.9C80.9,54.3,68.8,66.3,54,66.3z"/><path fill="#777c8f" d="M43.4,19.3L43.4,19.3C43.4,19.3,43.5,19.3,43.4,19.3C43.5,19.3,43.5,19.3,43.4,19.3z"/><rect x="56.5" y="25" width="15" height="3.5"/><rect x="56.5" y="31.9" width="15" height="3.5"/><polygon points="45.8,22.5 42.2,22.5 42.2,28.4 36.5,28.4 36.5,31.9 42.2,31.9 42.2,37.9 45.8,37.9 45.8,31.9 51.5,31.9 51.5,28.4   45.8,28.4 "/><rect x="56.7" y="46.7" width="14.6" height="3.3"/><polygon points="48.2,41.7 44,45.9 40,41.9 37.5,44.3 41.5,48.4 37.3,52.6 39.9,55.1 44.1,50.9 48.1,54.9 50.6,52.4 46.5,48.4   50.7,44.3 "/></svg>