<svg xmlns="http://www.w3.org/2000/svg" xmlns:xlink="http://www.w3.org/1999/xlink" version="1.1" x="0px" y="0px" viewBox="0 0 90 112.5" enable-background="new 0 0 90 90" xml:space="preserve"><path d="M65,53c1.1,0,2-0.9,2-2V37c0-11-9-20-20-20H28c-2.8,0-5,2.2-5,5v46c0,2.8,2.2,5,5,5h10c1.1,0,2-0.9,2-2s-0.9-2-2-2H28  c-0.6,0-1-0.4-1-1V22c0-0.6,0.4-1,1-1h17c2.2,0,4,1.8,4,4v8c0,1.1,0.9,2,2,2h8c2.2,0,4,1.8,4,4v12C63,52.1,63.9,53,65,53z M59,31h-6  v-6c0-1.1-0.2-2.1-0.6-3c4.5,1.6,8,5.2,9.6,9.6C61.1,31.2,60.1,31,59,31z"/><path d="M49.6,72.4c0.8,0.8,2,0.8,2.8,0c0.8-0.8,0.8-2,0-2.8L48.8,66l3.6-3.6c0.8-0.8,0.8-2,0-2.8c-0.8-0.8-2-0.8-2.8,0l-5,5  c-0.8,0.8-0.8,2,0,2.8L49.6,72.4z"/><path d="M56.7,75c1.1,0.2,2.1-0.6,2.3-1.7l2-14c0.2-1.1-0.6-2.1-1.7-2.3c-1.1-0.2-2.1,0.6-2.3,1.7l-2,14  C54.9,73.8,55.6,74.8,56.7,75z"/><path d="M66.4,59.6c-0.8-0.8-2-0.8-2.8,0c-0.8,0.8-0.8,2,0,2.8l3.6,3.6l-3.6,3.6c-0.8,0.8-0.8,2,0,2.8c0.8,0.8,2,0.8,2.8,0l5-5  c0.8-0.8,0.8-2,0-2.8L66.4,59.6z"/><text x="0" y="105" fill="#000000" font-size="5px" font-weight="bold" font-family="'Helvetica Neue', Helvetica, Arial-Unicode, Arial, Sans-serif">Created by Miguel Rocha</text><text x="0" y="110" fill="#000000" font-size="5px" font-weight="bold" font-family="'Helvetica Neue', Helvetica, Arial-Unicode, Arial, Sans-serif">from the Noun Project</text></svg>