<svg id="Layer_1" data-name="Layer 1" xmlns="http://www.w3.org/2000/svg" viewBox="0 0 122.88 99.29"><defs><style>.cls-1{fill:#121212;fill-rule:evenodd;width:20px; height:20px;}</style></defs><title>added-value</title><path class="cls-1" d="M0,44.28H21.67V89.89H0V44.28Zm82.17-16h4.2a1,1,0,0,1,1,1v5.57H93a1,1,0,0,1,1,1v4.19a1,1,0,0,1-1,1H87.41v5.57a1,1,0,0,1-1,1h-4.2a1,1,0,0,1-1-1V41.22H75.56a1,1,0,0,1-1-1V36a1,1,0,0,1,1-1h5.57V29.36a1.05,1.05,0,0,1,1-1ZM52.79,6.21h3.57a.89.89,0,0,1,.89.89v4.74H62a.89.89,0,0,1,.89.89V16.3a.89.89,0,0,1-.89.89H57.25v4.74a.89.89,0,0,1-.89.89H52.79a.89.89,0,0,1-.89-.89V17.19H47.16a.89.89,0,0,1-.89-.89V12.73a.89.89,0,0,1,.89-.89H51.9V7.1a.89.89,0,0,1,.89-.89ZM54.58,0A14.52,14.52,0,1,1,40.06,14.51,14.51,14.51,0,0,1,54.58,0ZM84.27,21a17,17,0,1,1-17,17,17,17,0,0,1,17-17Zm-57.44,65V48H44c7.27,1.3,14.54,5.24,21.8,9.81H79.1c6,.36,9.19,6.48,3.32,10.49-4.66,3.43-10.83,3.23-17.14,2.67-4.36-.22-4.55,5.63,0,5.65,1.58.13,3.29-.25,4.79-.25,7.88,0,14.37-1.51,18.34-7.74l2-4.65,19.82-9.82c9.91-3.26,17,7.1,9.65,14.32a260.22,260.22,0,0,1-44.11,26c-10.94,6.65-21.87,6.42-32.79,0L26.83,86.06Z"/></svg>