<svg xmlns="http://www.w3.org/2000/svg" xmlns:sodipodi="http://sodipodi.sourceforge.net/DTD/sodipodi-0.dtd" viewBox="0 0 100 125" x="0px" y="0px"><path fill="#dd95cd" d="m 14.880074,29.99363 c -0.722642,0.852925 -0.683076,2.397345 -0.670346,3.286014 0.143632,10.026846 0.214456,11.760471 0.151502,15.067932 -1.573827,0.09824 -2.162554,0.102895 -4.192263,0.259422 -1.2451243,0.09602 -3.7087133,0.162555 -4.5831238,1.059132 -1.1449317,1.173958 0.9523647,3.549052 1.6001159,4.518789 1.2491436,1.870071 2.5547898,2.614976 7.0258439,2.576236 -0.03944,2.232414 -0.102422,3.790135 -0.130057,7.475509 -0.04569,6.093885 2.069988,13.052444 4.021389,8.582377 1.82961,-4.191079 2.471774,-10.110546 3.091621,-16.490947 1.987843,-0.197657 3.571092,-0.34314 5.339945,-0.562428 -0.0429,2.351402 -0.11951,4.31104 -0.151502,8.470306 -0.04687,6.093876 2.082042,13.057685 4.021389,8.582378 1.949225,-4.498104 2.587996,-10.908185 3.199542,-17.791519 1.753692,-0.218606 3.502544,-0.448281 5.25347,-0.691792 -0.04566,2.480768 -0.13388,5.021489 -0.172947,9.900933 -0.04879,6.093862 2.07433,13.063911 3.999252,8.582378 2.101018,-4.891515 2.774088,-12.053792 3.372488,-19.563891 1.747468,-0.286403 3.452045,-0.59425 5.123413,-0.908324 -0.05118,2.586613 -0.142945,5.819783 -0.194392,11.891912 -0.05163,6.093838 2.092529,13.071684 3.999252,8.582379 2.307879,-5.433813 2.969173,-13.48096 3.523991,-21.812908 2.614975,-0.623306 5.098542,-0.950137 7.134455,-1.838094 4.811005,-2.098303 -0.296087,-4.14176 -6.831451,-4.192262 0.315173,-10.364478 -0.08267,-10.61894 -2.961562,-13.922322 -0.797404,-0.91498 -2.180246,-1.317763 -3.393935,-1.318557 -0.239598,-1.57e-4 -0.515165,0.07687 -0.670346,0.259421 -0.72497,0.852856 -0.703284,2.397331 -0.691793,3.286015 0.09437,7.298368 0.175716,9.8532 0.172948,12.084923 -2.060157,0.178481 -3.122058,0.264956 -4.777519,0.410924 0.02629,-0.57557 0.06422,-1.161524 0.08648,-1.72948 0.39835,-10.16382 -0.11269,-9.633499 -3.026593,-12.992555 -0.795305,-0.916804 -2.180243,-1.317761 -3.393933,-1.318555 -0.239598,-1.58e-4 -0.515165,0.07687 -0.670347,0.259421 -0.724969,0.852855 -0.703819,2.397336 -0.691792,3.286014 0.113203,8.36444 0.194393,10.684733 0.172948,13.16481 -1.963307,0.177791 -3.511538,0.311999 -4.821101,0.43237 0.04773,-0.949138 0.09359,-1.902421 0.130056,-2.832197 0.398668,-10.163808 -0.112689,-9.633499 -3.026591,-12.992554 -0.795307,-0.916805 -2.180245,-1.317763 -3.393934,-1.318557 -0.239599,-1.57e-4 -0.515739,0.07638 -0.670348,0.259421 -0.72136,0.854011 -0.682818,2.397344 -0.670345,3.286015 0.131435,9.365482 0.220682,11.368225 0.172947,14.268219 -1.230699,0.09201 -3.028667,0.203388 -4.884054,0.324451 0.07057,-1.288117 0.123693,-2.570014 0.172948,-3.826303 0.397644,-10.142375 -0.09156,-9.635362 -3.005147,-12.992555 -0.80048,-0.922356 -2.196527,-1.318532 -3.4178,-1.319939 -0.240186,-2.78e-4 -0.517505,0.07479 -0.672769,0.258038 z"/><path fill="#dd95cd" d="m 74.374224,29.99363 c -0.72264,0.852925 -0.683075,2.397345 -0.670346,3.286014 0.14363,10.026846 0.214456,11.760471 0.08855,18.737198 -0.125907,6.976727 -0.188895,8.534448 -0.216532,12.219822 -0.04573,6.093885 2.069988,13.052444 4.02139,8.582377 1.829611,-4.191079 2.839184,-10.110546 3.738446,-24.511938 0.89926,-14.401392 0.04261,-13.894379 -2.870939,-17.251572 -0.80048,-0.922356 -2.196524,-1.318532 -3.417799,-1.319939 -0.240185,-2.78e-4 -0.517504,0.07479 -0.67277,0.258038 z"/><path fill="#dd95cd" d="m 86.947973,29.99363 c -0.722639,0.852925 -0.683075,2.397345 -0.670347,3.286014 0.14363,10.026846 0.214457,11.760471 0.08855,18.737198 -0.125906,6.976727 -0.188893,8.534448 -0.216532,12.219822 -0.04573,6.093885 2.069989,13.052444 4.021394,8.582377 1.829609,-4.191079 2.839183,-10.110546 3.738442,-24.511938 0.899259,-14.401392 0.04264,-13.894379 -2.870935,-17.251572 -0.800486,-0.922356 -2.196524,-1.318532 -3.417798,-1.319939 -0.240187,-2.78e-4 -0.517507,0.07479 -0.672774,0.258038 z"/></svg>