<svg xmlns:dc="http://purl.org/dc/elements/1.1/" xmlns:cc="http://creativecommons.org/ns#" xmlns:rdf="http://www.w3.org/1999/02/22-rdf-syntax-ns#" xmlns:svg="http://www.w3.org/2000/svg" xmlns="http://www.w3.org/2000/svg" xmlns:sodipodi="http://sodipodi.sourceforge.net/DTD/sodipodi-0.dtd" xmlns:inkscape="http://www.inkscape.org/namespaces/inkscape" viewBox="0 0 862.50004 1386.2035" version="1.1" x="0px" y="0px"><g transform="translate(4973.0369,-638.0698)"><path style="" d="m -4583.6619,1745.957 c -141.1602,-7.3143 -266.6102,-50.904 -335.191,-116.4677 -19.7532,-18.8841 -39.9154,-44.8302 -48.6911,-62.6586 l -5.4929,-11.1593 0.1054,-131.9657 c 0.1045,-130.8886 0.1241,-131.8831 2.3945,-121.8373 6.3199,27.9626 24.3595,57.8531 48.9812,81.1586 16.7836,15.8863 53.3689,40.0013 83.5189,55.0509 51.1827,25.5483 113.8679,44.2198 181.875,54.1736 41.0213,6.004 55.997,6.9086 114.375,6.9086 58.378,0 73.3536,-0.9046 114.375,-6.9086 67.5723,-9.8902 130.4053,-28.5476 181.1497,-53.7903 30.3971,-15.1209 65.145,-37.9663 83.5163,-54.9087 24.7201,-22.7974 43.3007,-53.3299 49.7091,-81.6841 2.2711,-10.0487 2.2899,-9.1013 2.3945,120.2067 l 0.1054,130.3353 -6.4173,12.7897 c -20.7084,41.2723 -55.9542,77.5232 -102.2025,105.1171 -91.2264,54.4299 -227.617,82.7328 -364.5052,75.6398 z m 0,-327.5 c -124.3144,-6.4414 -238.1345,-41.3924 -310.2551,-95.2706 -16.173,-12.0821 -39.9431,-35.3716 -49.3187,-48.3215 -9.5572,-13.2007 -17.403,-26.2105 -24.0678,-39.9092 l -5.7334,-11.7843 0.1054,-129.4658 c 0.1046,-128.46508 0.1231,-129.3874 2.3945,-119.33721 4.643,20.54318 15.9761,42.88491 31.6387,62.37151 9.114,11.3392 23.8632,25.6855 32.1276,31.25 3.0632,2.0625 10.3596,7.1594 16.2141,11.3265 58.9599,41.9654 140.5283,71.6965 234.3947,85.4351 41.0213,6.004 55.997,6.9086 114.375,6.9086 58.378,0 73.3536,-0.9046 114.375,-6.9086 68.0242,-9.9563 130.7561,-28.6441 181.875,-54.1807 30.094,-15.0335 65.5626,-38.4859 83.7291,-55.3629 23.9663,-22.2652 42.461,-52.9208 48.771,-80.83951 2.2715,-10.05056 2.2899,-9.13437 2.3945,119.12521 l 0.1054,129.2536 -8.904,16.9964 c -14.2319,27.1663 -23.3596,40.0027 -41.0355,57.7081 -17.8565,17.8864 -35.5484,31.564 -58.6803,45.3655 -91.2264,54.4299 -227.617,82.7328 -364.5052,75.6398 z m -7.5,-326.8848 c -83.5712,-6.4552 -147.7719,-19.9668 -208.125,-43.8017 -73.1793,-28.9003 -125.6357,-67.63801 -153.7719,-113.55682 -5.7833,-9.4384 -11.0896,-21.1555 -15.8387,-34.97375 -4.2393,-12.33529 -5.4446,-42.56868 -2.3171,-58.125 18.7566,-93.29794 143.6479,-171.04915 315.0527,-196.13654 41.0213,-6.00402 55.997,-6.90859 114.375,-6.90859 58.378,0 73.3537,0.90457 114.375,6.90859 68.0056,9.95353 130.6865,28.62352 181.875,54.17287 75.2845,37.57621 122.2583,87.64888 133.1777,141.96367 3.1275,15.55632 1.9222,45.78971 -2.3171,58.125 -9.6712,28.14014 -21.3731,47.11631 -42.6659,69.18821 -61.0497,63.28366 -171.3864,106.74606 -306.9447,120.90776 -18.3747,1.9196 -110.0546,3.5356 -126.875,2.2363 z" fill="#dd95cd"/></g></svg>