<svg xmlns="http://www.w3.org/2000/svg" xmlns:xlink="http://www.w3.org/1999/xlink" width="289.891" height="214" viewBox="0 0 289.891 214">
  <defs>
    <linearGradient id="linear-gradient" x1="0.5" y1="1" x2="0.5" gradientUnits="objectBoundingBox">
      <stop offset="0" stop-color="gray" stop-opacity="0.251"/>
      <stop offset="0.54" stop-color="gray" stop-opacity="0.122"/>
      <stop offset="1" stop-color="gray" stop-opacity="0.102"/>
    </linearGradient>
    <linearGradient id="linear-gradient-2" y2="0" xlink:href="#linear-gradient"/>
    <linearGradient id="linear-gradient-4" x1="16.117" x2="16.117" y2="0" xlink:href="#linear-gradient"/>
  </defs>
  <g id="Group_204" data-name="Group 204" transform="translate(-242 -205)">
    <g id="undraw_organize_resume_utk5" transform="translate(241.994 204.989)">
      <path id="Path_369" data-name="Path 369" d="M108.144,214.964c-3.476.565-7.835,2.181-7.795,5.938.02,1.906,1.286,3.531,2.517,4.924a93.556,93.556,0,0,0,17.764,15.69c3.134,2.123,6.5,4.154,8.585,7.435s2.607,7.459,2.772,11.433a87.874,87.874,0,0,1-3.285,27.879c10.2,1.944,21.585,3.647,30.089-2.491,5.092-3.676,8.536-9.834,14.21-12.383,3.789-1.7,8.078-1.553,12.209-1.335q29.327,1.544,58.51,5.793c8.148,1.188,16.452,2.532,24.513,1s15.992-6.543,18.964-14.662c.458-1.251.869-2.647,1.894-3.4a5.136,5.136,0,0,1,3.267-.617l68.091,2.34c3.731.127,7.592.232,11.007-1.3,3.311-1.486,5.857-4.345,8.307-7.146,5.6-6.39,11.632-14.251,9.984-22.923-1.318-6.952-7.21-11.809-13.052-15.21s-12.287-6.184-16.58-11.621c-6.532-8.275-6.274-20.119-6.679-30.857a171.406,171.406,0,0,0-3.577-28.916c-1.77-8.368-4.235-16.748-8.843-23.815s-11.656-12.727-19.627-13.764c-10.41-1.356-20.875,5.138-31.059,2.381-8.6-2.317-14.523-10.552-21.651-16.258C256.02,82.936,239.405,80.812,223.7,80.618c-16.655-.211-33.75,1.474-48.595,9.295a26.043,26.043,0,0,0-9.081,7.12c-3.609,4.852-4.484,11.369-6.844,17.04-9.515,22.836-40.461,27.76-50.507,50.353-3.566,8.015-3.531,17.362-.933,25.779,2.8,9.057,10.662,14.06,13.782,21.956C118.163,214.321,112.213,214.3,108.144,214.964Z" transform="translate(-100.128 -80.59)" fill="#fff" opacity="0.3"/>
      <g id="Group_30" data-name="Group 30" transform="translate(249.692 42.957)" opacity="0.2">
        <path id="Path_370" data-name="Path 370" d="M985.15,322.056s1.39-18.471,11.829-28.507a28.068,28.068,0,0,0,8.351-15.667,47.22,47.22,0,0,0,.579-8.611" transform="translate(-978.337 -257.567)" fill="none" stroke="#535461" stroke-miterlimit="10" stroke-width="2"/>
        <path id="Path_371" data-name="Path 371" d="M1060.808,234.206c-.771,2.028-6.691,6.549-6.691,6.549s-1.448-7.3-.684-9.338a3.944,3.944,0,0,1,7.377,2.789Z" transform="translate(-1026.683 -228.866)" fill="#c73d2f"/>
        <path id="Path_372" data-name="Path 372" d="M1063.256,276.749c-1.753,1.292-9.176,1.86-9.176,1.86s2.749-6.92,4.5-8.212a3.942,3.942,0,0,1,4.675,6.349Z" transform="translate(-1027.301 -257.822)" fill="#c73d2f"/>
        <path id="Path_373" data-name="Path 373" d="M1037.94,341.139c-2.167.229-8.86-3.027-8.86-3.027s5.865-4.585,8.029-4.817a3.944,3.944,0,1,1,.831,7.844Z" transform="translate(-1009.542 -303.031)" fill="#c73d2f"/>
        <path id="Path_374" data-name="Path 374" d="M1005.976,387.112c-2.1.579-9.246-1.486-9.246-1.486s5.005-5.5,7.1-6.1a3.943,3.943,0,1,1,2.143,7.589Z" transform="translate(-986.563 -335.779)" fill="#c73d2f"/>
        <path id="Path_375" data-name="Path 375" d="M1025.913,278.112c.924,1.973,7.175,6.016,7.175,6.016s.889-7.392-.035-9.364a3.943,3.943,0,0,0-7.14,3.348Z" transform="translate(-1007.027 -259.857)" fill="#c73d2f"/>
        <path id="Path_376" data-name="Path 376" d="M988.671,329.544c1.471,1.6,8.646,3.595,8.646,3.595s-1.364-7.32-2.836-8.924a3.943,3.943,0,1,0-5.813,5.33Z" transform="translate(-980.099 -295.689)" fill="#c73d2f"/>
        <path id="Path_377" data-name="Path 377" d="M962.257,387.943c1.179,1.831,7.916,5,7.916,5s-.107-7.444-1.286-9.269a3.944,3.944,0,1,0-6.63,4.272Z" transform="translate(-961.628 -337.551)" fill="#c73d2f"/>
      </g>
      <path id="Path_378" data-name="Path 378" d="M164.14,87.83V221.359H378.714V87.83Z" transform="translate(-116.592 -62.382)" fill="url(#linear-gradient)"/>
      <rect id="Rectangle_102" data-name="Rectangle 102" width="210.041" height="10.199" transform="translate(49.816 26.859)" fill="#f6f7f9"/>
      <g id="Group_31" data-name="Group 31" transform="translate(49.816 26.859)" opacity="0.2">
        <rect id="Rectangle_103" data-name="Rectangle 103" width="210.041" height="10.199" fill="#c73d2f"/>
      </g>
      <rect id="Rectangle_104" data-name="Rectangle 104" width="210.041" height="120.51" transform="translate(49.816 37.057)" fill="#f6f7f9"/>
      <circle id="Ellipse_78" data-name="Ellipse 78" cx="2.268" cy="2.268" r="2.268" transform="translate(52.585 29.628)" fill="#f6f7f9"/>
      <circle id="Ellipse_79" data-name="Ellipse 79" cx="2.268" cy="2.268" r="2.268" transform="translate(58.627 29.628)" fill="#f6f7f9"/>
      <circle id="Ellipse_80" data-name="Ellipse 80" cx="2.268" cy="2.268" r="2.268" transform="translate(64.672 29.628)" fill="#f6f7f9"/>
      <g id="Group_32" data-name="Group 32" transform="translate(57.118 52.044)" opacity="0.2">
        <rect id="Rectangle_105" data-name="Rectangle 105" width="108.043" height="7.806" fill="#c73d2f"/>
      </g>
      <g id="Group_33" data-name="Group 33" transform="translate(192.863 52.044)" opacity="0.2">
        <rect id="Rectangle_106" data-name="Rectangle 106" width="56.665" height="7.806" fill="#c73d2f"/>
      </g>
      <g id="Group_34" data-name="Group 34" transform="translate(78.147 90.072)" opacity="0.2">
        <rect id="Rectangle_107" data-name="Rectangle 107" width="7.554" height="24.933" transform="translate(0 35.763)" fill="#c73d2f"/>
        <rect id="Rectangle_108" data-name="Rectangle 108" width="7.554" height="42.813" transform="translate(14.607 17.88)" fill="#c73d2f"/>
        <rect id="Rectangle_109" data-name="Rectangle 109" width="7.554" height="60.694" transform="translate(29.214)" fill="#c73d2f"/>
        <rect id="Rectangle_110" data-name="Rectangle 110" width="7.554" height="54.903" transform="translate(43.821 5.793)" fill="#c73d2f"/>
        <rect id="Rectangle_111" data-name="Rectangle 111" width="7.554" height="37.776" transform="translate(58.429 22.917)" fill="#c73d2f"/>
      </g>
      <g id="Group_35" data-name="Group 35" transform="translate(192.739 76.977)" opacity="0.2">
        <rect id="Rectangle_112" data-name="Rectangle 112" width="56.665" height="69.635" fill="#c73d2f"/>
      </g>
      <path id="Path_379" data-name="Path 379" d="M999.457,439.251a30.636,30.636,0,0,1-1.075-5.521c-.026-3.047,1.6-6.587-.536-8.837a10.035,10.035,0,0,1-1.5-1.495,3.29,3.29,0,0,1-.377-1.686c-.035-3.554,1.923-7.163.75-10.532a3.58,3.58,0,0,0-1.344-1.874,3.9,3.9,0,0,0-2.28-.51c-.75,0-1.541.084-2.317.1a5.009,5.009,0,0,1-1.3-.171c-.9-.255-1.66-.843-2.549-1.133a4.164,4.164,0,0,0-1.448-.2c-1.947-.064-3.725,1.231-5.109,2.485a19.081,19.081,0,0,1-2.187,1.59c.116-.081-2.7,1.854-1.642,1.874a3.69,3.69,0,0,1,2.1.73,5.666,5.666,0,0,0,.29,6.569c-.46-.452-.97-.947-1.492-1.448a34.343,34.343,0,0,0-4.741-4.133,33.55,33.55,0,0,1-4.073-2.859s-3.114,1.738-2.155,4.151a9.7,9.7,0,0,1,1.335.524,2.5,2.5,0,0,0,.182.936,10.314,10.314,0,0,1,2.766,1.356,4.723,4.723,0,0,1,.266.414,21.556,21.556,0,0,0,3.279,3.508c1.106,1.109,2.563,2.436,4.015,3.713a7.806,7.806,0,0,0-.979,2.607,3.222,3.222,0,0,1-.327-.151c-2.155-1.159-7.183-1.037-7.183-1.037a10.507,10.507,0,0,1-5.028-7.146s-.837-3-.6-3.8h-.014l.107-.023,1.005-1.822a.805.805,0,0,0-.66-1.182A4.354,4.354,0,0,0,959.5,418.3h.043l-.014.038c.6,2.882,1.078,2.65.959,4.956l1.915,5.072s.119,1.738,3.592,4.035a75.05,75.05,0,0,1,7.424,5.88s-2.094,1.095-1.318,6.109c.95,6.129-.478,14.871-.478,14.871v5.648l.266-.072c-.035.188-.067.388-.1.605a31.807,31.807,0,0,0-.165,8.576,83.747,83.747,0,0,0,3.592,14.193,25.657,25.657,0,0,1,1.318,5.188,4.781,4.781,0,0,0,.307,1.332,10.48,10.48,0,0,1,.84,4,28.163,28.163,0,0,0,1.845,10.112,26.734,26.734,0,0,1,1.8,5.944c-.869,1.124-1.987,2.349-2.876,2.471-1.677.232-4.91.461-2.755,3.227a1.967,1.967,0,0,0,.249.264c-1.636.261-3.435.834-1.686,3.079,2.155,2.766,14.845,1.5,14.845,1.5s.081-1.538,0-3.227c.889-.061,1.448-.116,1.448-.116s.359-6.685-1.2-7.493a3.36,3.36,0,0,0-.84.2c-.168-.924-.29-2.074-.376-2.923l.617-.046v-.046h.038V501.6s-.718-6.225-3.351-8.979a5.594,5.594,0,0,1-.869-1.159l-.035-.072c.017-.788.017-1.851,0-3.07l.038-.067c.046-.075.093-.142.136-.2a2.516,2.516,0,0,1,.2-.232l.038-.049h0s1.448-1.738,6.346-12.681c2.992-6.679,2.2-10.427,1.13-12.359-.226-.869-.7-2.815-1.289-6.149a24.114,24.114,0,0,1-.345-4.284,8.616,8.616,0,0,0,2.271.255,7.712,7.712,0,0,0,3.476-.742c-.782-1.141-1.6-2.479-1.2-3.792.446-1.495,2.213-2.181,3.232-3.386C999.787,443.176,999.819,441.1,999.457,439.251Z" transform="translate(-710.424 -312.723)" fill="url(#linear-gradient-2)"/>
      <path id="Path_380" data-name="Path 380" d="M987.237,428.25s-2.972,1.715-2.057,4.116c0,0,3.088.915,4.345,3.2s10.975,10.517,10.975,10.517l7.1-3.542s-2.465-3.29-10.262-5.59c0,0-4.6-4.924-6.2-5.842A34.676,34.676,0,0,1,987.237,428.25Z" transform="translate(-728.542 -327.542)" fill="#797c9c"/>
      <path id="Path_381" data-name="Path 381" d="M992.237,433.25s-2.972,1.715-2.057,4.116c0,0,3.088.915,4.345,3.2s10.975,10.517,10.975,10.517l7.1-3.542s-2.465-3.29-10.262-5.59c0,0-4.6-4.924-6.2-5.842A34.682,34.682,0,0,1,992.237,433.25Z" transform="translate(-732.094 -331.093)" opacity="0.05"/>
      <path id="Path_382" data-name="Path 382" d="M104.129,720.89s-16.7,10.077,14.086,25.591c0,0,6.784-12.594-.715-22.862a10.112,10.112,0,0,0-13.118-2.873Z" transform="translate(-99.6 -534.398)" fill="#c73d2f"/>
      <path id="Path_383" data-name="Path 383" d="M115.88,723.67s14.294,10.934,13.9,25.8" transform="translate(-111.16 -537.393)" fill="none" stroke="#535461" stroke-miterlimit="10" stroke-width="1"/>
      <path id="Path_384" data-name="Path 384" d="M161.582,674.289s-5.234-17.781.973-30.848a28.067,28.067,0,0,0,2.271-17.608,47.213,47.213,0,0,0-2.494-8.264" transform="translate(-142.159 -462.025)" fill="none" stroke="#535461" stroke-miterlimit="10" stroke-width="2"/>
      <path id="Path_385" data-name="Path 385" d="M163.274,579.329c0,2.178-3.942,8.493-3.942,8.493s-3.942-6.314-3.942-8.493a3.944,3.944,0,0,1,7.887,0Z" transform="translate(-139.226 -432.059)" fill="#c73d2f"/>
      <path id="Path_386" data-name="Path 386" d="M185.675,615.76c-1.185,1.828-7.925,4.985-7.925,4.985s.122-7.444,1.306-9.269a3.943,3.943,0,0,1,6.619,4.287Z" transform="translate(-155.109 -456.418)" fill="#c73d2f"/>
      <path id="Path_387" data-name="Path 387" d="M181.179,683.5c-1.944.982-9.359.29-9.359.29s3.864-6.372,5.808-7.346a3.943,3.943,0,0,1,3.551,7.041Z" transform="translate(-150.897 -503.544)" fill="#c73d2f"/>
      <path id="Path_388" data-name="Path 388" d="M168.763,738.074c-1.738,1.295-9.173,1.88-9.173,1.88s2.731-6.926,4.484-8.22a3.943,3.943,0,0,1,4.69,6.341Z" transform="translate(-142.209 -542.572)" fill="#c73d2f"/>
      <path id="Path_389" data-name="Path 389" d="M146.219,632.736c1.561,1.518,8.84,3.09,8.84,3.09s-1.781-7.241-3.345-8.747a3.946,3.946,0,1,0-5.5,5.657Z" transform="translate(-131.857 -467.986)" fill="#c73d2f"/>
      <path id="Path_390" data-name="Path 390" d="M129.592,693.978c1.944.982,9.359.29,9.359.29s-3.864-6.372-5.807-7.346a3.943,3.943,0,0,0-3.551,7.042Z" transform="translate(-119.36 -510.988)" fill="#c73d2f"/>
      <path id="Path_391" data-name="Path 391" d="M125.539,757.974c1.738,1.295,9.173,1.88,9.173,1.88s-2.731-6.926-4.484-8.22a3.943,3.943,0,0,0-4.689,6.341Z" transform="translate(-116.886 -556.708)" fill="#c73d2f"/>
      <path id="Path_392" data-name="Path 392" d="M163.274,579.329c0,2.178-3.942,8.493-3.942,8.493s-3.942-6.314-3.942-8.493a3.944,3.944,0,0,1,7.887,0Z" transform="translate(-139.226 -432.059)" opacity="0.25"/>
      <path id="Path_393" data-name="Path 393" d="M185.675,615.76c-1.185,1.828-7.925,4.985-7.925,4.985s.122-7.444,1.306-9.269a3.943,3.943,0,0,1,6.619,4.287Z" transform="translate(-155.109 -456.418)" opacity="0.25"/>
      <path id="Path_394" data-name="Path 394" d="M181.179,683.5c-1.944.982-9.359.29-9.359.29s3.864-6.372,5.808-7.346a3.943,3.943,0,0,1,3.551,7.041Z" transform="translate(-150.897 -503.544)" opacity="0.25"/>
      <path id="Path_395" data-name="Path 395" d="M168.763,738.074c-1.738,1.295-9.173,1.88-9.173,1.88s2.731-6.926,4.484-8.22a3.943,3.943,0,0,1,4.69,6.341Z" transform="translate(-142.209 -542.572)" opacity="0.25"/>
      <path id="Path_396" data-name="Path 396" d="M146.219,632.736c1.561,1.518,8.84,3.09,8.84,3.09s-1.781-7.241-3.345-8.747a3.946,3.946,0,1,0-5.5,5.657Z" transform="translate(-131.857 -467.986)" opacity="0.25"/>
      <path id="Path_397" data-name="Path 397" d="M129.592,693.978c1.944.982,9.359.29,9.359.29s-3.864-6.372-5.807-7.346a3.943,3.943,0,0,0-3.551,7.042Z" transform="translate(-119.36 -510.988)" opacity="0.25"/>
      <path id="Path_398" data-name="Path 398" d="M125.539,757.974c1.738,1.295,9.173,1.88,9.173,1.88s-2.731-6.926-4.484-8.22a3.943,3.943,0,0,0-4.689,6.341Z" transform="translate(-116.886 -556.708)" opacity="0.25"/>
      <path id="Path_399" data-name="Path 399" d="M203.4,675.46s-5.234-17.77.982-30.848A28.067,28.067,0,0,0,206.65,627a47.212,47.212,0,0,0-2.494-8.264" transform="translate(-171.864 -462.856)" fill="none" stroke="#535461" stroke-miterlimit="10" stroke-width="2"/>
      <path id="Path_400" data-name="Path 400" d="M205.084,580.529c0,2.178-3.942,8.493-3.942,8.493s-3.942-6.314-3.942-8.493a3.944,3.944,0,0,1,7.887,0Z" transform="translate(-168.925 -432.911)" fill="#c73d2f"/>
      <path id="Path_401" data-name="Path 401" d="M227.495,616.92c-1.185,1.828-7.925,4.985-7.925,4.985s.122-7.444,1.306-9.269a3.943,3.943,0,0,1,6.619,4.287Z" transform="translate(-184.816 -457.241)" fill="#c73d2f"/>
      <path id="Path_402" data-name="Path 402" d="M222.989,684.66c-1.944.982-9.359.29-9.359.29s3.864-6.372,5.807-7.346a3.95,3.95,0,1,1,3.551,7.056Z" transform="translate(-180.597 -504.37)" fill="#c73d2f"/>
      <path id="Path_403" data-name="Path 403" d="M210.573,739.244c-1.738,1.295-9.173,1.88-9.173,1.88s2.731-6.926,4.484-8.22a3.943,3.943,0,1,1,4.689,6.34Z" transform="translate(-171.909 -543.403)" fill="#c73d2f"/>
      <path id="Path_404" data-name="Path 404" d="M188.049,633.9c1.561,1.518,8.84,3.091,8.84,3.091s-1.781-7.241-3.345-8.747a3.946,3.946,0,1,0-5.5,5.657Z" transform="translate(-161.571 -468.81)" fill="#c73d2f"/>
      <path id="Path_405" data-name="Path 405" d="M171.4,695.138c1.944.982,9.359.29,9.359.29s-3.864-6.372-5.807-7.346a3.943,3.943,0,1,0-3.551,7.041Z" transform="translate(-149.06 -511.812)" fill="#c73d2f"/>
      <path id="Path_406" data-name="Path 406" d="M167.349,759.144c1.738,1.295,9.173,1.88,9.173,1.88s-2.731-6.926-4.484-8.22a3.943,3.943,0,0,0-4.689,6.34Z" transform="translate(-146.586 -557.539)" fill="#c73d2f"/>
      <rect id="Rectangle_113" data-name="Rectangle 113" width="276.038" height="2.028" transform="translate(7.113 211.984)" fill="#c73d2f"/>
      <rect id="Rectangle_114" data-name="Rectangle 114" width="58.501" height="71.892" transform="translate(202.248 98.73)" fill="url(#linear-gradient)"/>
      <rect id="Rectangle_115" data-name="Rectangle 115" width="56.665" height="69.635" transform="translate(203.166 99.86)" fill="#c73d2f"/>
      <rect id="Rectangle_116" data-name="Rectangle 116" width="11.586" height="11.586" transform="translate(206.972 105.971)" fill="#e8eaf1"/>
      <rect id="Rectangle_117" data-name="Rectangle 117" width="41.131" height="2.317" transform="translate(212.765 124.509)" fill="#e8eaf1"/>
      <rect id="Rectangle_118" data-name="Rectangle 118" width="41.131" height="2.317" transform="translate(212.765 129.433)" fill="#e8eaf1"/>
      <rect id="Rectangle_119" data-name="Rectangle 119" width="41.131" height="2.317" transform="translate(212.765 134.357)" fill="#e8eaf1"/>
      <rect id="Rectangle_120" data-name="Rectangle 120" width="41.131" height="2.317" transform="translate(212.765 139.281)" fill="#e8eaf1"/>
      <rect id="Rectangle_121" data-name="Rectangle 121" width="41.131" height="2.317" transform="translate(212.765 144.205)" fill="#e8eaf1"/>
      <rect id="Rectangle_122" data-name="Rectangle 122" width="41.131" height="2.317" transform="translate(212.765 149.129)" fill="#e8eaf1"/>
      <rect id="Rectangle_123" data-name="Rectangle 123" width="41.131" height="2.317" transform="translate(212.765 154.053)" fill="#e8eaf1"/>
      <path id="Path_407" data-name="Path 407" d="M1046.279,764.89s.342,5.028.915,5.6-5.144.915-5.144.915l.8-6.517Z" transform="translate(-769.063 -566.673)" fill="#ffb9b9"/>
      <path id="Path_408" data-name="Path 408" d="M1046.279,764.89s.342,5.028.915,5.6-5.144.915-5.144.915l.8-6.517Z" transform="translate(-769.063 -566.673)" opacity="0.05"/>
      <path id="Path_409" data-name="Path 409" d="M1027.365,774.382s-.8,0-3.658,1.486c0,0-1.944-.342-2.743-3.088,0,0-2.4,4.116-4,4.345s-4.686.458-2.63,3.2,14.176,1.486,14.176,1.486S1028.848,775.181,1027.365,774.382Z" transform="translate(-748.889 -572.278)" fill="#e4e2f3"/>
      <path id="Path_410" data-name="Path 410" d="M1027.365,774.382s-.8,0-3.658,1.486c0,0-1.944-.342-2.743-3.088,0,0-2.4,4.116-4,4.345s-4.686.458-2.63,3.2,14.176,1.486,14.176,1.486S1028.848,775.181,1027.365,774.382Z" transform="translate(-748.889 -572.278)" opacity="0.05"/>
      <path id="Path_411" data-name="Path 411" d="M1040.216,781.493l-.8,2.172-5.257-1.486.29-2.155.072-.521.2-1.448s4.458-1.144,4.458-.579a8.83,8.83,0,0,0,.29,1.393c.182.7.411,1.5.579,2.028C1040.147,781.264,1040.216,781.493,1040.216,781.493Z" transform="translate(-763.459 -575.502)" fill="#ffb9b9"/>
      <path id="Path_412" data-name="Path 412" d="M1030.16,622.588a3.125,3.125,0,0,0,0,3.186,5.53,5.53,0,0,0,.823,1.138c2.514,2.743,3.2,8.915,3.2,8.915v9.944l-1.715.13-2.743.211L1025.61,629.2s-2.4-12.345-1.257-14.517,2.172-15.774,2.172-15.774l.95-.982,2.251-2.332h6.517a4.383,4.383,0,0,1,1.269,1.416c1.095,1.81,2.077,5.576-.924,12.527-4.687,10.859-6.059,12.574-6.059,12.574A2.633,2.633,0,0,0,1030.16,622.588Z" transform="translate(-756.272 -446.411)" fill="#4c4c78"/>
      <path id="Path_413" data-name="Path 413" d="M1030.29,622.418a3.125,3.125,0,0,0,0,3.186,5.544,5.544,0,0,0,.823,1.138c2.514,2.743,3.2,8.916,3.2,8.916V645.6l-1.715.13-2.743.211-4.116-16.918s-2.4-12.345-1.257-14.517,2.172-15.774,2.172-15.774l.95-.982,2.25-2.332h6.517a4.386,4.386,0,0,1,1.269,1.417c1.095,1.81,2.077,5.576-.924,12.527-4.687,10.859-6.06,12.574-6.06,12.574A2.634,2.634,0,0,0,1030.29,622.418Z" transform="translate(-756.365 -446.291)" opacity="0.05"/>
      <path id="Path_414" data-name="Path 414" d="M1040.39,778.883l-4.95.62.2-1.448s4.458-1.144,4.458-.579a8.884,8.884,0,0,0,.293,1.408Z" transform="translate(-764.368 -575.502)" opacity="0.1"/>
      <path id="Path_415" data-name="Path 415" d="M1014.085,603.743s.29,9,.33,14.654v3.186a7.04,7.04,0,0,1-.093,1.254c-.342,1.028.342,3.314.342,3.314a32.991,32.991,0,0,1,2.057,14.175v5.028l-5.486.686s.915-.686-1.6-7.317a28.893,28.893,0,0,1-1.764-10.028,10.735,10.735,0,0,0-.8-3.968,4.895,4.895,0,0,1-.29-1.321,26.24,26.24,0,0,0-1.257-5.144,85.222,85.222,0,0,1-3.43-14.06,32.732,32.732,0,0,1,.159-8.5,21.146,21.146,0,0,1,.411-2.126s11.175-7.033,15.395-2.172a5.505,5.505,0,0,1,.953,1.6,10.547,10.547,0,0,1,.539,1.781C1020.86,601.229,1014.085,603.743,1014.085,603.743Z" transform="translate(-740.534 -442.22)" fill="#4c4c78"/>
      <circle id="Ellipse_81" data-name="Ellipse 81" cx="5.831" cy="5.831" r="5.831" transform="translate(267.382 99.796)" fill="#ffb9b9"/>
      <path id="Path_416" data-name="Path 416" d="M1030.871,449.127s2.4,6.743,0,10.288,7.658,2.4,7.658,2.4l3.887-4.687s-4.574,0-4.8-8S1030.871,449.127,1030.871,449.127Z" transform="translate(-760.86 -339.845)" fill="#ffb9b9"/>
      <path id="Path_417" data-name="Path 417" d="M1022.967,594.134a15.009,15.009,0,0,1-2.546.637c-1.422.22-3.1.229-4.084-.637-.579-.513-2.028-.579-3.739-.411a64.108,64.108,0,0,0-9.478,1.967,21.289,21.289,0,0,1,.411-2.126s11.175-7.033,15.395-2.172h2.439a4.384,4.384,0,0,1,1.269,1.416C1022.845,593.717,1022.967,594.134,1022.967,594.134Z" transform="translate(-741.409 -442.213)" opacity="0.1"/>
      <path id="Path_418" data-name="Path 418" d="M1040.216,788.128l-.8,2.172-5.257-1.486.29-2.155a3.7,3.7,0,0,0,2.445,2.271,18.657,18.657,0,0,1,3.146-1.379C1040.147,787.9,1040.216,788.128,1040.216,788.128Z" transform="translate(-763.459 -582.138)" opacity="0.1"/>
      <path id="Path_419" data-name="Path 419" d="M1022.615,785.832s-.8,0-3.658,1.486c0,0-1.943-.342-2.743-3.088,0,0-2.4,4.116-4,4.345s-4.687.458-2.63,3.2,14.176,1.486,14.176,1.486S1024.1,786.631,1022.615,785.832Z" transform="translate(-745.515 -580.412)" fill="#e4e2f3"/>
      <path id="Path_420" data-name="Path 420" d="M962.62,439.154a4.229,4.229,0,0,1,4.9-4.018.8.8,0,0,1,.631,1.159l-.959,1.8Z" transform="translate(-712.64 -332.412)" fill="#ffb9b9"/>
      <path id="Path_421" data-name="Path 421" d="M989.677,455.823s-5.6-.915-7.088-2.057a2.312,2.312,0,0,1-3.2,1.028c-2.057-1.144-6.859-1.028-6.859-1.028a10.367,10.367,0,0,1-4.8-7.088s-.8-2.972-.579-3.765c0,0-2.972-3.088-4.458,1.028.579,2.859,1.028,2.63.915,4.924l1.828,5.028s.113,1.715,3.429,4a73.342,73.342,0,0,1,7.088,5.831s-2,1.086-1.257,6.06c.91,6.083-.458,14.746-.458,14.746v5.6s11.432-3.314,13.373-1.6,6.63,0,6.63,0a63.9,63.9,0,0,1-1.373-6.63,29.061,29.061,0,0,1,.113-9.269s2.972-7.887,4.345-11.088-1.028-7.531-3.429-9.144-3.293-.64-3.293-.64S994.821,454.795,989.677,455.823Z" transform="translate(-712.69 -337.168)" fill="#797c9c"/>
      <path id="Path_422" data-name="Path 422" d="M1005.15,544.577s.912-.22,5.483-.907,12.574.915,12.574.915" transform="translate(-742.852 -409.409)" opacity="0.05"/>
      <path id="Path_423" data-name="Path 423" d="M1018.229,417.657a4.063,4.063,0,0,1,3.38,5.59c-.507,1.02-1.489,1.917-1.387,3.05a11.028,11.028,0,0,0,.44,1.486c.547,2.317-2.225,4.487-1.59,6.775a4.893,4.893,0,0,0,.991,1.66l4.814,6.065a4.553,4.553,0,0,1,.718,1.112,4.688,4.688,0,0,1,.208,1.781c-.023,2.9.165,6,1.874,8.354a7.676,7.676,0,0,0,9.353,2.262c-.747-1.133-1.526-2.459-1.159-3.766.426-1.48,2.112-2.164,3.085-3.357,1.176-1.448,1.2-3.5.869-5.333a32.192,32.192,0,0,1-1.025-5.474c-.023-3.021,1.524-6.532-.513-8.762a9.748,9.748,0,0,1-1.434-1.483,3.368,3.368,0,0,1-.359-1.674c-.032-3.522,1.836-7.105.715-10.445a3.547,3.547,0,0,0-1.283-1.86c-1.587-1.069-3.789-.032-5.625-.579-.869-.252-1.584-.837-2.433-1.124-2.288-.773-4.406.779-5.987,2.268a18.221,18.221,0,0,1-2.088,1.576C1019.906,415.719,1017.215,417.636,1018.229,417.657Z" transform="translate(-751.98 -315.807)" opacity="0.1"/>
      <path id="Path_424" data-name="Path 424" d="M1019.229,417.657a4.063,4.063,0,0,1,3.38,5.59c-.507,1.02-1.489,1.917-1.388,3.05a11.046,11.046,0,0,0,.44,1.486c.547,2.317-2.224,4.487-1.59,6.775a4.9,4.9,0,0,0,.991,1.66l4.814,6.065a4.556,4.556,0,0,1,.718,1.112,4.686,4.686,0,0,1,.209,1.781c-.023,2.9.165,6,1.874,8.354a7.676,7.676,0,0,0,9.353,2.262c-.747-1.133-1.526-2.459-1.159-3.766.426-1.48,2.111-2.164,3.085-3.357,1.176-1.448,1.205-3.5.869-5.333a32.2,32.2,0,0,1-1.025-5.474c-.023-3.021,1.524-6.532-.512-8.762a9.75,9.75,0,0,1-1.434-1.483,3.372,3.372,0,0,1-.359-1.674c-.032-3.522,1.837-7.105.715-10.445a3.548,3.548,0,0,0-1.283-1.86c-1.587-1.069-3.788-.032-5.625-.579-.869-.252-1.584-.837-2.433-1.124-2.288-.773-4.406.779-5.987,2.268a18.23,18.23,0,0,1-2.088,1.576C1020.906,415.719,1018.215,417.636,1019.229,417.657Z" transform="translate(-752.69 -315.807)" fill="#b36362"/>
      <path id="Path_425" data-name="Path 425" d="M647.966,480.909a10.046,10.046,0,0,1-1.712-2.1,7.624,7.624,0,0,0-3.829-2.847v-.513h.069l-.032-.475h.032l-.081-1.257h0l-.408-6.28a9.7,9.7,0,0,1,1.13-8.061c2.607-3.852.162-7.548-2.288-8.994,0,0-1.159-6.1-.162-7.548a42.079,42.079,0,0,0-4.113-2.094q-.032-.113-.061-.232c-.026-.579-.061-1.138-.093-1.706a6.221,6.221,0,0,1,.162-.869q.048-.178.1-.365a6.265,6.265,0,0,0,4-5.81,6.152,6.152,0,0,0-.388-2.155,2.741,2.741,0,0,0,.29-.684,2.79,2.79,0,0,0-.388-2,7.227,7.227,0,0,0-3.476-3.256c-1.7-.7-4.261-.53-6.031-.319-.993.119-2.129.455-2.488,1.373a9.507,9.507,0,0,0-.226,1.057c-.371,1.4-1.978,2.057-2.972,3.128a7.463,7.463,0,0,0-1.547,3.476,32.085,32.085,0,0,0-.579,10.911c.1.84.235,1.674.377,2.508-.6.84-1.135,2.317-.889,4.924l-1.961,9.315-.817,5.46a4.773,4.773,0,0,0,1.471,4.177,36.763,36.763,0,0,1,3.7,4.652,11.08,11.08,0,0,0-.6,3.7c.02.579.052,1.127.093,1.654a14.727,14.727,0,0,0,.626,3.273,23.332,23.332,0,0,0,1.57,6.952l.327,9.8s-.49,8.994-1.471,10.761,2.126,16.7,2.126,16.7v2.088l-.524,1.529-.13-.1c-2.453,3.053,0,4.177,0,4.177s.666.032,1.738.072a1.973,1.973,0,0,0,1.045,2.175s13.9.643,16.354,0,1.8-2.9.49-2.731a5.982,5.982,0,0,1-1.958-.258,1.146,1.146,0,0,0-.82-1.99c-1.309.159-4.252-1.005-4.252-1.005v.02a2.2,2.2,0,0,0-.29-.087,32.814,32.814,0,0,1-3.236-.912c-.631-1.353-2.085-4.991-1.043-7.821a14.042,14.042,0,0,0,.626-4.617,52.734,52.734,0,0,1,2.152-14.651l1.961-6.74s2.781-8.191,2.943-10.427l-.023-3.279a4.759,4.759,0,0,0,5.292.345,1.26,1.26,0,0,0,.2-2.045Zm-21.825-17.037c.055-.235.1-.492.142-.762h1.159a5.967,5.967,0,0,1,.579,3.16C627.135,465.98,625.808,465.291,626.141,463.872Z" transform="translate(-468.934 -323.924)" fill="url(#linear-gradient-4)"/>
      <path id="Path_426" data-name="Path 426" d="M646.159,783.746l-.629,1.889,2.045,2.045,6.766,1.573,4.878-.472-.316-1.738h0a2.088,2.088,0,0,0-1.55-1.524c-2-.472-5.828-1.544-6.633-3.038Z" transform="translate(-487.396 -579.169)" fill="#db8b8b"/>
      <path id="Path_427" data-name="Path 427" d="M646.159,783.746l-.629,1.889,2.045,2.045,6.766,1.573,4.878-.472-.316-1.738h0a2.088,2.088,0,0,0-1.55-1.524c-2-.472-5.828-1.544-6.633-3.038Z" transform="translate(-487.396 -579.169)" opacity="0.1"/>
      <path id="Path_428" data-name="Path 428" d="M655.066,794.917l-.944-1.26.944-1.448s2.833,1.144,4.09.985,1.888,2.045-.472,2.676-15.737,0-15.737,0-2.361-1.1,0-4.09l2.045,1.573s3.476,1.889,5.194,1.573Z" transform="translate(-484.816 -585.775)" fill="#474463"/>
      <path id="Path_429" data-name="Path 429" d="M668.443,796.418l-4.878.472-6.761-1.584-2.045-2.028.168-.5.235-.7.229-.686,4.562-1.26a2.826,2.826,0,0,0,.924.927,19.771,19.771,0,0,0,5.706,2.111,1.657,1.657,0,0,1,.194.058,2.079,2.079,0,0,1,1.356,1.466Z" transform="translate(-493.953 -584.603)" fill="#db8b8b"/>
      <path id="Path_430" data-name="Path 430" d="M668.443,802.911l-4.878.472L656.8,801.8l-2.045-2.028.168-.5,1.88,1.448s3.476,1.889,5.193,1.573h4.878l-.944-1.26.849-1.309a2.08,2.08,0,0,1,1.356,1.466Z" transform="translate(-493.953 -591.095)" opacity="0.1"/>
      <path id="Path_431" data-name="Path 431" d="M664.3,802.517l-.944-1.26.944-1.448s2.833,1.144,4.09.985,1.889,2.045-.472,2.676-15.737,0-15.737,0-2.361-1.1,0-4.09l2.045,1.573s3.476,1.889,5.193,1.573Z" transform="translate(-491.372 -591.173)" fill="#474463"/>
      <path id="Path_432" data-name="Path 432" d="M664.474,474.669s-7.554.788-6.451-2.361a5.665,5.665,0,0,0,.232-2.778,7.7,7.7,0,0,0-1.335-3.2l7.082,1.1a8.87,8.87,0,0,0-.959,2.274A4.634,4.634,0,0,0,664.474,474.669Z" transform="translate(-495.487 -354.592)" fill="#db8b8b"/>
      <path id="Path_433" data-name="Path 433" d="M638.46,619s.156,6.766,1.738,10.071l.316,9.6s-.472,8.811-1.416,10.543,2.045,16.365,2.045,16.365V668.1s5.028,1.883,6.453-.319l-1.417-18.726.629-25.964Z" transform="translate(-482.374 -463.041)" fill="#474463"/>
      <path id="Path_434" data-name="Path 434" d="M638.46,619s.156,6.766,1.738,10.071l.316,9.6s-.472,8.811-1.416,10.543,2.045,16.365,2.045,16.365V668.1s5.028,1.883,6.453-.319l-1.417-18.726.629-25.964Z" transform="translate(-482.374 -463.041)" opacity="0.1"/>
      <path id="Path_435" data-name="Path 435" d="M623.236,544l-.944,2.517-.788,5.35a4.733,4.733,0,0,0,1.416,4.09,45.005,45.005,0,0,1,4.406,5.822l2.989-8.979s-2.989-.472-2.517-2.517a29.273,29.273,0,0,0,.316-5.822Z" transform="translate(-470.295 -409.765)" fill="#cbcdda"/>
      <path id="Path_436" data-name="Path 436" d="M623.236,543l-.944,2.517-.788,5.35a4.733,4.733,0,0,0,1.416,4.09,45,45,0,0,1,4.406,5.822l2.989-8.979s-2.989-.472-2.517-2.517a29.274,29.274,0,0,0,.316-5.822Z" transform="translate(-470.295 -409.054)" opacity="0.05"/>
      <path id="Path_437" data-name="Path 437" d="M661.858,791.03c-2.028,3.186-5.159,1.376-5.718,1.017l.229-.686,4.562-1.26A2.828,2.828,0,0,0,661.858,791.03Z" transform="translate(-494.933 -584.581)" opacity="0.1"/>
      <path id="Path_438" data-name="Path 438" d="M654.45,597.336c-.156,2.2-2.833,10.228-2.833,10.228l-1.886,6.6a52.545,52.545,0,0,0-2.074,14.367,13.971,13.971,0,0,1-.6,4.521c-1.26,3.476,1.26,8.183,1.26,8.183-2.2,3.933-5.979,1.26-5.979,1.26v-2.517s-2.989-13.689-2.2-16.365,1.1-9.915,1.1-9.915v-13.06a14.821,14.821,0,0,1-4.319-9.4c-.038-.516-.067-1.057-.087-1.619-.127-3.551,2.3-7.713,3.247-9.2.229-.359.371-.559.371-.559l13.9,5.5h.032V587.1Z" transform="translate(-481.211 -435.245)" fill="#474463"/>
      <path id="Path_439" data-name="Path 439" d="M664.012,467.431a8.867,8.867,0,0,0-.959,2.274,6.158,6.158,0,0,1-4.788-.174,7.7,7.7,0,0,0-1.335-3.2Z" transform="translate(-495.494 -354.592)" opacity="0.1"/>
      <circle id="Ellipse_82" data-name="Ellipse 82" cx="6.138" cy="6.138" r="6.138" transform="translate(159.232 102.924)" fill="#db8b8b"/>
      <path id="Path_440" data-name="Path 440" d="M661.019,587.108h-.067c-6.6,1.356-14.882-5.521-14.882-5.521a8.14,8.14,0,0,0,.579-1.159c.229-.359.371-.559.371-.559l13.9,5.5.035.55Z" transform="translate(-487.78 -435.245)" opacity="0.1"/>
      <path id="Path_441" data-name="Path 441" d="M643.851,485.545s-8.811-5.35-11.644-3.149l-3.934,5.034s-2.517.788-2.045,5.822l-1.889,9.127,5.666,1.416a6.2,6.2,0,0,1,.629,7.711s8.339,6.923,14.949,5.5l-.487-7.389a9.58,9.58,0,0,1,1.1-7.867c2.517-3.777.156-7.395-2.2-8.811C644.01,492.943,642.907,486.962,643.851,485.545Z" transform="translate(-472.344 -365.627)" fill="#cbcdda"/>
      <path id="Path_442" data-name="Path 442" d="M689.368,605.4a8.115,8.115,0,0,1,4.878,3.149,9.8,9.8,0,0,0,1.648,2.056,1.249,1.249,0,0,1-.194,1.99c-1.249.75-3.285,1.214-5.857-.9C685.435,608.076,689.368,605.4,689.368,605.4Z" transform="translate(-517.389 -453.38)" fill="#db8b8b"/>
      <path id="Path_443" data-name="Path 443" d="M661.429,504.61s-3.149-.316-3.934,7.867-2.045,10.071-2.045,10.071-.788,4.249,1.1,6.766,5.5,7.867,5.5,7.867,3.933,1.1,4.721-2.833l-4.878-9.127s-.788-3.149,1.1-5.35S666.306,503.034,661.429,504.61Z" transform="translate(-494.327 -381.7)" opacity="0.1"/>
      <path id="Path_444" data-name="Path 444" d="M662.519,502.98s-3.148-.316-3.933,7.867-2.045,10.071-2.045,10.071-.788,4.249,1.1,6.766,5.5,7.867,5.5,7.867,3.933,1.1,4.721-2.833l-4.878-9.127s-.785-3.146,1.1-5.338S667.4,501.4,662.519,502.98Z" transform="translate(-495.101 -380.542)" fill="#cbcdda"/>
      <path id="Path_445" data-name="Path 445" d="M681.235,523.64s.316,4.878-1.1,7.554-1.417,6.138,0,8.026" transform="translate(-511.223 -395.302)" opacity="0.1"/>
      <path id="Path_446" data-name="Path 446" d="M664.561,496.436s-1.26-1.26-4.878-1.416-5.193-1.26-5.193-1.26" transform="translate(-493.761 -374.077)" opacity="0.1"/>
      <path id="Path_447" data-name="Path 447" d="M634.855,429.269c-.956.119-2.048.446-2.392,1.344a9.466,9.466,0,0,0-.217,1.037c-.356,1.376-1.9,2.028-2.859,3.065a7.32,7.32,0,0,0-1.489,3.406,32,32,0,0,0-.553,10.691c.307,2.607.936,5.179,1.109,7.8a12.353,12.353,0,0,1-1.579,7.58,18.875,18.875,0,0,0-1.865,2.821,5.385,5.385,0,0,0,3.311.869q2.028.069,4.055,0a4.329,4.329,0,0,0,2.065-.429,3.186,3.186,0,0,0,1.083-1.159,8.311,8.311,0,0,0,.936-4.417c-.035-1.521-.275-3.038-.29-4.565a3.993,3.993,0,0,1,.527-2.393,7.643,7.643,0,0,1,1.318-1.219c1.686-1.492,2.262-3.887,2.317-6.138s-.316-4.5-.125-6.746c.075-.869.4-1.932,1.266-2.1a4.875,4.875,0,0,0,.823-.1c.692-.266.626-1.243.823-1.958.223-.8.907-1.422,1.1-2.233.452-1.9-1.97-4.177-3.557-4.84C639.032,428.9,636.57,429.064,634.855,429.269Z" transform="translate(-472.82 -328.138)" opacity="0.1"/>
      <path id="Path_448" data-name="Path 448" d="M634.355,428.176c-.956.119-2.048.446-2.392,1.344a9.444,9.444,0,0,0-.217,1.037c-.356,1.376-1.9,2.028-2.859,3.065a7.32,7.32,0,0,0-1.489,3.406,32,32,0,0,0-.553,10.691c.307,2.607.936,5.179,1.109,7.8a12.352,12.352,0,0,1-1.579,7.58,18.876,18.876,0,0,0-1.865,2.821,5.386,5.386,0,0,0,3.311.869q2.028.069,4.055,0a4.328,4.328,0,0,0,2.065-.429,3.187,3.187,0,0,0,1.083-1.159,8.312,8.312,0,0,0,.936-4.417c-.035-1.521-.275-3.038-.29-4.565a3.993,3.993,0,0,1,.527-2.393,7.645,7.645,0,0,1,1.318-1.219c1.686-1.492,2.262-3.887,2.317-6.138s-.316-4.5-.125-6.746c.075-.869.4-1.932,1.266-2.1a4.873,4.873,0,0,0,.823-.1c.692-.267.626-1.243.823-1.958.223-.8.906-1.422,1.1-2.233.452-1.9-1.97-4.177-3.557-4.84C638.521,427.806,636.058,427.968,634.355,428.176Z" transform="translate(-472.465 -327.361)" fill="#472727"/>
    </g>
  </g>
</svg>
