<svg xmlns="http://www.w3.org/2000/svg" viewBox="0 0 32 40" x="0px" y="0px"><title></title><g data-name="music node"><path fill="#dd95cd" d="M8,11a1,1,0,0,0-1,1v8a1,1,0,0,0,2,0V12A1,1,0,0,0,8,11Z"/><path fill="#dd95cd" d="M24,11a1,1,0,0,0-1,1v8a1,1,0,0,0,2,0V12A1,1,0,0,0,24,11Z"/><path fill="#dd95cd" d="M16,7a1,1,0,0,0-1,1V24a1,1,0,0,0,2,0V8A1,1,0,0,0,16,7Z"/><path fill="#dd95cd" d="M20,9a1,1,0,0,0-1,1V22a1,1,0,0,0,2,0V10A1,1,0,0,0,20,9Z"/><path fill="#dd95cd" d="M12,9a1,1,0,0,0-1,1V22a1,1,0,0,0,2,0V10A1,1,0,0,0,12,9Z"/></g></svg>