<svg xmlns="http://www.w3.org/2000/svg" viewBox="0 0 512 640" x="0px" y="0px"><title>Artboard 1 copy 16</title><g data-name="17 Minimize"><path fill="#ffffff" d="M389.35,492H122.65C55,492,0,429.83,0,353.42V208C0,131.61,55,69.44,122.65,69.44h61.68a15,15,0,0,1,0,30H122.65C71.56,99.44,30,148.15,30,208v145.4C30,413.29,71.56,462,122.65,462h266.7C440.44,462,482,413.29,482,353.42V208c0-59.87-41.56-108.58-92.65-108.58H327.67a15,15,0,0,1,0-30h61.68C457,69.44,512,131.61,512,208v145.4C512,429.83,457,492,389.35,492Z"/><path fill="#ffffff" d="M256,122.47a15,15,0,0,1-15-15V35a15,15,0,0,1,30,0v72.47A15,15,0,0,1,256,122.47Z"/><path fill="#ffffff" d="M421,251H91a15,15,0,0,1,0-30H421a15,15,0,0,1,0,30Z"/><path fill="#ffffff" d="M261,349.33H91a15,15,0,0,1,0-30H261a15,15,0,0,1,0,30Z"/></g></svg>