<svg xmlns="http://www.w3.org/2000/svg" viewBox="0 0 56 70" x="0px" y="0px"><g class="secondary"><rect x="34" y="10" width="4" height="4"/><rect x="27" y="19" width="2" height="2"/><rect x="26" y="26" width="4" height="4"/><rect x="32" y="24" width="8" height="8"/><rect x="42" y="26" width="4" height="4"/><rect x="19" y="35" width="2" height="2"/><rect x="8" y="40" width="8" height="8"/><rect x="32" y="40" width="8" height="8"/></g><g class="primary"><rect x="8" y="8" width="8" height="8"/><rect x="18" y="10" width="4" height="4"/><rect x="24" y="8" width="8" height="8"/><rect x="43" y="11" width="2" height="2"/><rect x="10" y="18" width="4" height="4"/><rect x="19" y="19" width="2" height="2"/><rect x="42" y="18" width="4" height="4"/><rect x="34" y="18" width="4" height="4"/><rect x="9" y="25" width="6" height="6"/><rect x="17" y="25" width="6" height="6"/><rect x="10" y="34" width="4" height="4"/><rect x="27" y="35" width="2" height="2"/><rect x="34" y="34" width="4" height="4"/><rect x="43" y="35" width="2" height="2"/><rect x="19" y="43" width="2" height="2"/><rect x="26" y="42" width="4" height="4"/><rect x="42" y="42" width="4" height="4"/></g></svg>