<svg xmlns="http://www.w3.org/2000/svg" xmlns:xlink="http://www.w3.org/1999/xlink" version="1.1" x="0px" y="0px" viewBox="0 0 100 125" style="enable-background:new 0 0 100 100;" xml:space="preserve"><path fill="#dd95cd" d="M68.5,69.8"/><path fill="#dd95cd" d="M90.4,56.7l-19.2,5.4l0,0.1c0.5,1.9,0.2,4-0.8,5.7c-1,1.9-2.7,3.2-4.8,3.8c-2,0.6-4.2,0.3-6.1-0.7l-11.1-6.2  l1-1.9l11.1,6.2c1.4,0.8,2.9,0.9,4.4,0.5c1.5-0.4,2.7-1.4,3.5-2.8c0.4-0.7,0.6-1.5,0.7-2.3c0.3-1.9-0.6-3.9-2.3-4.8l-26.9-15  c0,0-2.8-1.9-6.6-0.8c0,0,0,0-0.1,0c-0.7,0.1-29.6,8.4-30.8,8.7l-0.1,0l5.9,20.7l19.3-5.5c2,1.2,16.7,10.3,18.5,11.4  c3.3,1.9,7.3,0.9,8.2,0.6c0.1,0,39.4-11.2,39.4-11.2c2.7-0.8,5-4.4,3.9-8.1C96.8,57.7,93.5,55.8,90.4,56.7z"/><circle  fill="#dd95cd" cx="49.3" cy="38" r="2.9"/><circle  fill="#dd95cd" cx="89.4" cy="43.2" r="2.9"/><circle  fill="#dd95cd" cx="70.5" cy="29.1" r="2.9"/><polygon  fill="#dd95cd" points="57.5,27.5 61.7,25.8 57.7,24.2 55.7,19.5 53.8,24.2 49.8,25.8 54,27.6 55.8,31.8 "/><polygon  fill="#dd95cd" points="72.4,42.6 70.4,38 68.6,42.7 64.6,44.2 68.8,46 70.6,50.2 72.3,46 76.5,44.2 "/><polygon  fill="#dd95cd" points="88.3,29 92.5,27.2 88.5,25.6 86.5,21 84.6,25.6 80.6,27.2 84.8,29 86.6,33.2 "/></svg>